<svg xmlns="http://www.w3.org/2000/svg" xmlns:xlink="http://www.w3.org/1999/xlink" width="912" height="180" viewBox="0 0 912 180">
    <defs>
        <path id="a" d="M88 176c-48.601 0-88-39.399-88-88S39.399 0 88 0s88 39.399 88 88-39.399 88-88 88zm12-86.828V102c0 7.732-6.268 14-14 14H73.172l-16.88 16.879A3 3 0 0 0 58.415 138H88c18.778 0 34-15.222 34-34V74.414a3 3 0 0 0-5.121-2.121L100 89.172zm-24-2.344V74c0-7.732 6.268-14 14-14h12.828l16.88-16.879A3 3 0 0 0 117.585 38H88c-18.778 0-34 15.222-34 34v29.586a3 3 0 0 0 5.121 2.121L76 86.828z"/>
    </defs>
    <g fill="none" fill-rule="evenodd">
        <use fill="#FFF" fill-rule="nonzero" transform="rotate(-45 90.207 86.086)" xlink:href="#a"/>
        <path fill="#FFF" fill-rule="nonzero" d="M262.037 126.163c-6.112 0-11.647-1.757-16.546-5.256-4.65-3.322-8.015-7.72-10.065-13.155-.466-1.236.185-3.15 1.543-3.649l9.524-3.496c1.195-.44 2.916.293 3.48 1.393 1.368 2.665 3.179 4.804 5.442 6.438 2.38 1.718 4.905 2.562 7.628 2.562 2.635 0 4.655-.65 6.146-1.916 1.402-1.192 2.11-2.921 2.11-5.354 0-1.856-.955-3.538-3.04-5.143-2.402-1.848-5.82-3.75-10.242-5.683-2.926-1.282-5.282-2.399-7.077-3.357-1.847-.986-3.895-2.34-6.153-4.061-2.427-1.85-4.258-4.06-5.471-6.614-1.204-2.535-1.802-5.353-1.802-8.432 0-5.759 2.241-10.67 6.652-14.6 4.376-3.901 10.098-5.84 17.067-5.84 5.574 0 10.494 1.523 14.697 4.566 3.995 2.892 6.748 6.575 8.215 11.008.396 1.196-.293 2.918-1.593 3.352l-9.603 3.202c-1.151.384-2.773-.314-3.334-1.345-2.072-3.809-5.019-5.62-9.086-5.62-2.185 0-3.891.529-5.192 1.56-1.186.94-1.757 2.186-1.757 3.916 0 .357.044.698.132 1.025.065.238.178.464.353.69.323.416.63.799.918 1.148.163.198.495.48.988.814.612.415 1.122.747 1.527.995.377.23.984.553 1.808.962.84.416 1.478.716 1.905.898.495.21 1.282.566 2.373 1.073a86.63 86.63 0 0 0 2.288 1.036c2.877 1.29 5.285 2.5 7.23 3.636 1.962 1.147 4.115 2.643 6.462 4.491 2.511 1.977 4.446 4.338 5.787 7.07 1.344 2.737 2.015 5.73 2.015 8.954 0 6.963-2.519 12.585-7.517 16.695-4.894 4.025-10.858 6.037-17.812 6.037zm54.24-54.862c3.204-1.642 6.718-2.463 10.516-2.463 6.126 0 11.198 1.86 15.106 5.586 3.967 3.783 5.898 9.635 5.898 17.445v30.598a2.5 2.5 0 0 1-2.5 2.5h-10.563a2.5 2.5 0 0 1-2.5-2.5V94.261c0-3.91-.822-6.607-2.348-8.172-1.551-1.59-3.612-2.386-6.31-2.386-6.432 0-9.363 3.188-9.363 10.36v28.404a2.5 2.5 0 0 1-2.5 2.5h-10.564a2.5 2.5 0 0 1-2.5-2.5V72.534a2.5 2.5 0 0 1 2.5-2.5h9.659a2.5 2.5 0 0 1 2.5 2.5v.587a21.368 21.368 0 0 1 2.97-1.82zm64.915 54.862c-6.075 0-11.103-1.606-15.004-4.847-4.001-3.324-6-8.08-6-14.097 0-6.143 2.306-10.944 6.874-14.19 4.373-3.106 9.606-4.655 15.638-4.655 3.96 0 7.552.56 10.77 1.686-.005-5.081-2.831-7.922-8.502-8.314-5.877-.407-9.435.347-14.595 3.585-1.09.683-2.96.552-3.627-.918-.187-.414-1.796-3.9-2.152-4.718-.655-1.5-1.034-2.564-1.238-3.576-.205-1.01.394-2.402 1.319-2.941 6.458-3.765 14.341-5.934 21.569-5.296 14.875 1.312 22.488 8.511 22.488 22.093v32.492a2.5 2.5 0 0 1-2.5 2.5H395.97a2.5 2.5 0 0 1-2.445-1.976c-3.452 2.117-7.579 3.172-12.333 3.172zm2.77-24.52c-2.975 0-5.388.54-7.255 1.598-1.648.934-2.407 2.2-2.407 3.978 0 1.573.636 2.785 1.994 3.769 1.457 1.055 3.601 1.608 6.46 1.608 4.218 0 7.747-1.392 10.667-4.205v-4.999c-2.688-1.163-5.838-1.75-9.46-1.75zm54.533 21.614v14.14a2.5 2.5 0 0 1-1.46 2.275l-10.989 5.02a2.2 2.2 0 0 1-3.114-2.002V72.534a2.5 2.5 0 0 1 2.5-2.5h10.563c1.107 0 2.045.719 2.374 1.715 3.002-1.94 6.584-2.91 10.695-2.91 7.471 0 13.51 2.598 17.957 7.772 4.396 5.114 6.567 12.12 6.567 20.94 0 8.629-2.246 15.577-6.78 20.753-4.573 5.223-10.502 7.86-17.643 7.86-4.13 0-7.704-.97-10.67-2.907zm8.96-11.558c3.52 0 6.153-1.155 8.035-3.48 1.937-2.393 2.934-5.935 2.934-10.668 0-4.544-1-8.08-2.96-10.653-1.886-2.472-4.54-3.695-8.109-3.695-4.174 0-7.246 1.354-9.36 4.079v20.338c2.115 2.723 5.22 4.08 9.46 4.08zm52.98 11.558v14.14a2.5 2.5 0 0 1-1.46 2.275l-10.989 5.02a2.2 2.2 0 0 1-3.114-2.002V72.534a2.5 2.5 0 0 1 2.5-2.5h10.563c1.107 0 2.045.719 2.375 1.715 3.001-1.94 6.583-2.91 10.695-2.91 7.47 0 13.509 2.598 17.956 7.772 4.396 5.114 6.567 12.12 6.567 20.94 0 8.629-2.246 15.577-6.78 20.753-4.573 5.223-10.502 7.86-17.643 7.86-4.13 0-7.704-.97-10.67-2.907zm8.96-11.558c3.52 0 6.153-1.155 8.035-3.48 1.937-2.393 2.934-5.935 2.934-10.668 0-4.544-1-8.08-2.96-10.653-1.886-2.472-4.54-3.695-8.109-3.695-4.174 0-7.246 1.354-9.36 4.079v20.338c2.115 2.723 5.22 4.08 9.46 4.08zm62.584 12.338a2.5 2.5 0 0 1-2.5 2.5h-9.348a2.5 2.5 0 0 1-2.5-2.5V54.71a2.5 2.5 0 0 1 2.5-2.5H570.9a2.5 2.5 0 0 1 2.419 1.87l8.759 33.626a1.138 1.138 0 0 0 2.2.007l8.988-33.648a2.5 2.5 0 0 1 2.415-1.855h10.067a2.5 2.5 0 0 1 2.5 2.5v69.327a2.5 2.5 0 0 1-2.5 2.5h-9.348a2.5 2.5 0 0 1-2.5-2.5V94.579l-5.858 20.284a5.138 5.138 0 0 1-9.857.053l-6.205-20.64v29.761zm72.846 3.706c-8.105 0-14.636-2.61-19.453-7.827-4.786-5.186-7.16-12.219-7.16-20.998 0-8.71 2.372-15.738 7.151-20.988 4.816-5.29 11.352-7.937 19.462-7.937 8.178 0 14.734 2.648 19.518 7.943 4.742 5.25 7.096 12.276 7.096 20.982 0 8.708-2.355 15.72-7.1 20.937-4.785 5.26-11.338 7.888-19.514 7.888zm0-14.552c3.714 0 6.475-1.214 8.422-3.655 2.012-2.522 3.038-6.045 3.038-10.618 0-4.577-1.028-8.14-3.049-10.732-1.948-2.501-4.704-3.742-8.41-3.742-3.641 0-6.385 1.242-8.368 3.75-2.05 2.592-3.093 6.15-3.093 10.724 0 4.503 1.041 8.008 3.087 10.566 1.983 2.479 4.73 3.707 8.373 3.707zm56.376-41.6c2.678-1.064 5.423-1.598 8.223-1.598 7.02 0 12.808 2.672 17.209 7.953 4.343 5.212 6.491 12.195 6.491 20.872 0 9.004-2.073 16.083-6.286 21.168-4.278 5.163-10.206 7.757-17.615 7.757-4.387 0-8.133-.974-11.184-2.928a2.501 2.501 0 0 1-2.376 1.722h-10.554a2.5 2.5 0 0 1-2.5-2.5V57.645a2.5 2.5 0 0 1 1.454-2.27l10.979-5.06a2.2 2.2 0 0 1 3.12 1.997v20.762a21.138 21.138 0 0 1 3.039-1.483zm6.214 41.6c3.492 0 6.035-1.179 7.783-3.557 1.831-2.493 2.773-6.088 2.773-10.816 0-4.86-.941-8.484-2.763-10.903-1.746-2.318-4.293-3.471-7.793-3.471-2.31 0-4.331.464-6.084 1.385-1.594.837-2.813 1.762-3.668 2.764v20.563c2.177 2.69 5.382 4.035 9.752 4.035zm59.016-45.126c-2.408 0-4.523-.881-6.237-2.595-1.717-1.717-2.595-3.868-2.595-6.337 0-2.476.883-4.618 2.613-6.304 1.714-1.671 3.822-2.528 6.219-2.528 2.458 0 4.602.853 6.319 2.528 1.73 1.686 2.613 3.828 2.613 6.304 0 2.47-.878 4.62-2.595 6.337-1.718 1.718-3.868 2.595-6.337 2.595zm19.492 44.325a2.5 2.5 0 0 1 2.5 2.5v9.147a2.5 2.5 0 0 1-2.5 2.5H747.04a2.5 2.5 0 0 1-2.5-2.5v-9.147a2.5 2.5 0 0 1 2.5-2.5h11.665V85.346h-6.958a2.5 2.5 0 0 1-2.5-2.5v-9.148a2.5 2.5 0 0 1 2.5-2.5h20.012a2.5 2.5 0 0 1 2.5 2.5v38.692h11.665zm58.05 0a2.5 2.5 0 0 1 2.5 2.5v9.147a2.5 2.5 0 0 1-2.5 2.5h-40.492a2.5 2.5 0 0 1-2.5-2.5v-9.147a2.5 2.5 0 0 1 2.5-2.5h12.47V64.147h-6.516a2.5 2.5 0 0 1-2.214-1.338l-5.03-9.587A2.2 2.2 0 0 1 804.139 50h24.865a2.5 2.5 0 0 1 2.5 2.5v59.89h12.47zm33.03-1.596c1.856 1.802 4.25 2.701 7.297 2.701 3.747 0 6.875-1.31 9.5-3.977.93-.944 2.8-.957 3.727.025l6.19 6.55c.813.86.875 2.503.028 3.404-5.16 5.484-11.718 8.246-19.545 8.246-8.115 0-14.64-2.668-19.422-7.999-4.738-5.28-7.092-12.288-7.092-20.926 0-8.78 2.375-15.812 7.161-20.998 4.816-5.217 11.314-7.827 19.353-7.827 7.075 0 12.943 2.255 17.483 6.759 4.568 4.531 6.82 11.088 6.82 19.554 0 2.816-.12 5.115-.364 6.913-.15 1.107-1.265 2.12-2.407 2.12H873.72c.737 2.238 1.834 4.049 3.284 5.455zm16.439-18.801c-.459-2.583-1.427-4.533-2.882-5.894-1.763-1.647-3.857-2.459-6.36-2.459-3.333 0-5.939.883-7.89 2.631-1.604 1.437-2.74 3.333-3.404 5.722h20.536z"/>
    </g>
</svg>
