<svg id="Layer_1" data-name="Layer 1" xmlns="http://www.w3.org/2000/svg" width="1490" height="170" viewBox="0 0 1490 170"><defs><style>.cls-1{fill:#fff;}</style></defs><path class="cls-1" d="M219.71,95.63h21.06c.42,7.68,6.56,13.4,17.72,13.4,9.21,0,14.65-3.49,14.65-9.63,0-18.14-50.92-2-50.92-42.13,0-16.33,12.69-29.3,35.15-29.3,20.37,0,35.44,10.46,36.28,31.11h-22c-.14-6.7-5.16-11.44-14.23-11.44-8.65,0-13.11,3.91-13.11,9.07,0,17.3,51.9,1.53,51.9,41,0,18.13-13.81,31.53-38.37,31.53C234.08,129.26,219.57,115.72,219.71,95.63Z"/><path class="cls-1" d="M310.76,56.67h20.37v5.2h1.11c2.93-5,9.91-9.9,19.81-9.9,16.33,0,26.37,11,26.37,26.36v49.11H356.8V85c0-7.53-4.47-13-11.86-13-7.54,0-12.56,6.27-12.56,14.09v41.29H310.76Z"/><path class="cls-1" d="M390.87,91c0-23.16,13.67-39.06,33.48-39.06,11.58,0,18.28,6.27,20.79,10.18h1.12V56.67h21.62v70.77H446.39v-8.37h-1.11c-2.09,3.35-8.23,10.19-20.37,10.19C404.68,129.26,390.87,114.19,390.87,91Zm55.8-.42c0-11.72-7.11-19.11-17-19.11s-16.88,7.81-16.88,19.11,6.84,19.11,17,19.11S446.67,101.49,446.67,90.61Z"/><path class="cls-1" d="M484.44,56.67h21.35V62h1.12c2.09-3.35,8.23-10,20.5-10C547.5,52,561.32,67,561.32,90.19S547.78,129.26,528,129.26c-12,0-18.41-6.14-20.78-10.19h-1.12v31.8l-21.63,8.66Zm55,33.94c0-11.58-6.83-19.11-16.88-19.11-10.32,0-16.88,8.09-16.88,19.11,0,11.72,7,19.11,16.88,19.11C532.58,109.72,539.41,101.91,539.41,90.61Z"/><path class="cls-1" d="M575.16,56.67h21.35V62h1.11c2.1-3.35,8.23-10,20.51-10C638.22,52,652,67,652,90.19s-13.53,39.07-33.34,39.07c-12,0-18.42-6.14-20.79-10.19h-1.11v31.8l-21.63,8.66Zm55,33.94c0-11.58-6.84-19.11-16.88-19.11-10.33,0-16.88,8.09-16.88,19.11,0,11.72,7,19.11,16.88,19.11S630.13,101.91,630.13,90.61Z"/><path class="cls-1" d="M724.8,29.78H753l33.62,97.66H763.17l-5.86-17.3H719.92l-5.72,17.3H691.6Zm26.51,60.69-12-36.41h-1.26L725.92,90.47Z"/><path class="cls-1" d="M794.88,102.89V56.67h21.63V96.19c0,7.67,4.46,13,11.85,13s12.56-6.28,12.56-14.09V56.67h21.63v70.77H842v-8.09h-1.12c-2.79,4.88-9.76,9.91-19.67,9.91C804.93,129.26,794.88,118.23,794.88,102.89Z"/><path class="cls-1" d="M885.86,101.91V73.55H874V56.81h7c3.91,0,6-2.66,6-6.56V36.72l20.51-7.22V56.67h19.25V73.55H907.49V100.8c0,5.44,3.07,8.78,9.48,8.78h9.49l-5.77,17.86h-9.16C895.49,127.44,885.86,118.09,885.86,101.91Z"/><path class="cls-1" d="M934.46,90.61c0-21.76,15.9-38.64,39.76-38.64,23.58,0,39.62,16.88,39.62,38.64s-16,38.65-39.76,38.65S934.46,112.37,934.46,90.61Zm57.48,0c0-11.16-7.54-19.11-17.86-19.11s-17.72,8-17.72,19.11,7.53,19.11,17.72,19.11S991.94,101.77,991.94,90.61Z"/><path class="cls-1" d="M1027.43,56.67h20.37v5.06h1.12c3.07-4.88,9.48-9.76,19.25-9.76s16.88,3.76,21.35,10h1c5.16-6.83,12.14-10,21.35-10,16,0,26.78,10.6,26.78,26v49.52H1117v-42c0-8.09-3.63-13.39-11.16-13.39-7.12,0-11.86,5.86-11.86,14.09v41.29h-21.62V84.89c0-7.53-4-12.83-11.44-12.83-7.12,0-11.86,6-11.86,14v41.43h-21.63Z"/><path class="cls-1" d="M1151,90.61c0-21.76,15.9-38.64,39.76-38.64,23.57,0,39.62,16.88,39.62,38.64s-16.05,38.65-39.76,38.65S1151,112.37,1151,90.61Zm57.47,0c0-11.16-7.53-19.11-17.85-19.11s-17.72,8-17.72,19.11,7.53,19.11,17.72,19.11S1208.51,101.77,1208.51,90.61Z"/><path class="cls-1" d="M1249.4,101.91V73.55h-11.86V56.81h7c3.91,0,6-2.66,6-6.56V36.72L1271,29.5V56.67h19.25V73.55H1271V100.8c0,5.44,3.07,8.78,9.49,8.78H1290l-5.77,17.86h-9.15C1259,127.44,1249.4,118.09,1249.4,101.91Z"/><path class="cls-1" d="M1301.83,39.6c0-7.25,5.3-11.72,12.69-11.72s12.7,4.47,12.7,11.72-5.3,11.72-12.7,11.72S1301.83,46.86,1301.83,39.6Zm2,17.07h21.63v70.77h-21.63Z"/><path class="cls-1" d="M1334.75,56.58h22.47l14.39,45.19h1.12l14.44-45.19h22.74l-25,70.86h-25Z"/><path class="cls-1" d="M1414.07,91c0-23,15.35-39.06,37.81-39.06,24.28,0,37,17.85,37,38.36v6.28h-54.27c.7,9.35,7.53,16,17.72,16,8.51,0,14.23-4.18,16.32-8.79h19.53c-3.34,15.49-16.74,25.4-36.69,25.4C1430.12,129.26,1414.07,113.21,1414.07,91Zm54.69-8.79c-.84-7.81-7.25-13.81-16.88-13.81-9.21,0-15.9,6.56-16.88,13.81Z"/><path class="cls-1" d="M85.44.71A84.29,84.29,0,1,0,169.73,85,84.29,84.29,0,0,0,85.44.71ZM43.34,86.5c-2.38-3-3.58-7.29-3.59-11.51a18.61,18.61,0,0,1,3.54-11.53c6.21-7.82,17.25-21.69,17.25-21.69h25.4L62.77,70.85a6.68,6.68,0,0,0,0,8.19l23.16,29.19H60.53S49.48,94.14,43.34,86.5Zm84.24,20c-6.2,7.82-17.24,21.69-17.24,21.69H84.94l23.17-29.08a6.67,6.67,0,0,0,0-8.19L84.94,61.77h25.41S121.4,75.86,127.54,83.5c2.38,3,3.58,7.29,3.59,11.51A18.55,18.55,0,0,1,127.58,106.54Z"/></svg>